<svg xmlns="http://www.w3.org/2000/svg" viewBox="0 0 24 24" width="18" height="18">
  <path
    fill="#4285F4"
    d="M23.49 12.27c0-.79-.07-1.55-.2-2.27H12v4.31h6.45a5.52 5.52 0 0 1-2.4 3.62v3h3.88c2.27-2.09 3.56-5.18 3.56-8.66Z"
  />
  <path
    fill="#34A853"
    d="M12 24c3.24 0 5.96-1.07 7.95-2.9l-3.88-3A7.2 7.2 0 0 1 12 19.32a7.18 7.18 0 0 1-6.75-4.96H1.24v3.11A12 12 0 0 0 12 24Z"
  />
  <path
    fill="#FBBC05"
    d="M5.25 14.36A7.2 7.2 0 0 1 4.85 12c0-.82.14-1.62.4-2.36V6.53H1.24A12 12 0 0 0 0 12c0 1.93.46 3.75 1.24 5.47l4.01-3.11Z"
  />
  <path
    fill="#EA4335"
    d="M12 4.77c1.76 0 3.34.61 4.58 1.8l3.43-3.43A11.98 11.98 0 0 0 12 0 12 12 0 0 0 1.24 6.53l4.01 3.11A7.18 7.18 0 0 1 12 4.77Z"
  />
</svg>
